# xmcd
#
# Track frame offsets: 
#        150
#        12825
#        25925
#        48645
#        65787
#        80612
#        95950
#        123952
#        134925
#        147860
#
# Disc length: 2133 seconds
#
# Revision: 0
# Processed by: cddbd v1.5.2PL0 Copyright (c) Steve Scherf et al.
# Submitted via: ExactAudioCopyFreeDBPlugin 1.0
#
DISCID=9808530a
DTITLE=Ray Stevens - Greatest Hits, Vol. 2
DYEAR=1987
DGENRE=Comedy
TTITLE0=Would Jesus Wear A Rolex
TTITLE1=Can He Love You Half As Much As I
TTITLE2=The Ballad Of The Blue Cyclone
TTITLE3=I Need Your Help Barry Manilow
TTITLE4=Mama's In The Sky With Elvis
TTITLE5=Mr. Businessman
TTITLE6=The Haircut Song
TTITLE7=Jeremiah Peabody's Poly Unsaturated Quick Dissolving Fast acti
TTITLE7=ng Pleasant Tasting Green And Purple Pills
TTITLE8=Freddie Feelgood (And His Funky Little Five-Piece Band)
TTITLE9=In The Mood
EXTD=
EXTT0=
EXTT1=
EXTT2=
EXTT3=
EXTT4=
EXTT5=
EXTT6=
EXTT7=
EXTT8=
EXTT9=
PLAYORDER=
